<?xml version="1.0" encoding="UTF-8"?>
<svg width="800" height="450" viewBox="0 0 800 450" xmlns="http://www.w3.org/2000/svg" preserveAspectRatio="xMidYMid meet">
  <defs>
    <linearGradient id="news-placeholder-gradient" x1="0%" y1="0%" x2="100%" y2="100%">
      <stop offset="0%" stop-color="#4285F4"/>
      <stop offset="100%" stop-color="#34A853"/>
    </linearGradient>
    <linearGradient id="news-placeholder-gradient2" x1="0%" y1="0%" x2="100%" y2="0%">
      <stop offset="0%" stop-color="#FBBC05"/>
      <stop offset="100%" stop-color="#EA4335"/>
    </linearGradient>
  </defs>
  <rect width="800" height="450" fill="#f5f5f5"/>
  <g transform="translate(250, 100)">
    <rect x="0" y="0" width="300" height="200" rx="10" fill="white" stroke="#e0e0e0" stroke-width="2"/>
    <circle cx="150" cy="80" r="40" fill="url(#news-placeholder-gradient)" opacity="0.8"/>
    <text x="150" y="250" font-family="Arial, sans-serif" font-size="24" text-anchor="middle" fill="#333333">数字人新闻图像</text>
    <g transform="translate(80, 140)">
      <line x1="0" y1="0" x2="140" y2="0" stroke="#e0e0e0" stroke-width="4" stroke-linecap="round"/>
      <line x1="0" y1="15" x2="140" y2="15" stroke="#e0e0e0" stroke-width="4" stroke-linecap="round"/>
      <line x1="0" y1="30" x2="140" y2="30" stroke="#e0e0e0" stroke-width="4" stroke-linecap="round"/>
    </g>
    <g transform="translate(0, 0)">
      <path d="M270,20 L290,20 L290,40 L270,40 Z" fill="url(#news-placeholder-gradient2)"/>
      <path d="M250,20 L270,20 L270,40 L250,40 Z" fill="url(#news-placeholder-gradient2)" opacity="0.8"/>
      <path d="M230,20 L250,20 L250,40 L230,40 Z" fill="url(#news-placeholder-gradient2)" opacity="0.6"/>
  </g>
  </g>
  <text x="400" y="40" font-family="Arial, sans-serif" font-size="20" text-anchor="middle" fill="#666666">图片正在加载中...</text>
</svg>
