<svg width="24" height="24" viewBox="0 0 24 24" xmlns="http://www.w3.org/2000/svg">
  <defs>
    <linearGradient id="chat-grad" x1="0%" y1="0%" x2="100%" y2="100%">
      <stop offset="0%" style="stop-color:#4a6bff;stop-opacity:1" />
      <stop offset="100%" style="stop-color:#00c4cc;stop-opacity:1" />
    </linearGradient>
  </defs>
  <path d="M20,2 L4,2 C2.9,2 2,2.9 2,4 L2,22 L6,18 L20,18 C21.1,18 22,17.1 22,16 L22,4 C22,2.9 21.1,2 20,2 Z M9,11 L7,11 L7,9 L9,9 L9,11 Z M13,11 L11,11 L11,9 L13,9 L13,11 Z M17,11 L15,11 L15,9 L17,9 L17,11 Z" fill="url(#chat-grad)" />
</svg> 