<?xml version="1.0" encoding="UTF-8"?>
<svg width="100" height="100" viewBox="0 0 100 100" fill="none" xmlns="http://www.w3.org/2000/svg">
  <circle cx="50" cy="50" r="48" fill="#F5F5F5" stroke="#3366FF" stroke-width="2"/>
  <circle cx="50" cy="50" r="15" fill="#3366FF" fill-opacity="0.2" stroke="#3366FF" stroke-width="2"/>
  <circle cx="50" cy="50" r="5" fill="#3366FF"/>
  <circle cx="35" cy="25" r="8" fill="#3366FF" fill-opacity="0.2" stroke="#3366FF" stroke-width="2"/>
  <circle cx="35" cy="25" r="3" fill="#3366FF"/>
  <circle cx="75" cy="35" r="8" fill="#3366FF" fill-opacity="0.2" stroke="#3366FF" stroke-width="2"/>
  <circle cx="75" cy="35" r="3" fill="#3366FF"/>
  <circle cx="75" cy="65" r="8" fill="#3366FF" fill-opacity="0.2" stroke="#3366FF" stroke-width="2"/>
  <circle cx="75" cy="65" r="3" fill="#3366FF"/>
  <circle cx="35" cy="75" r="8" fill="#3366FF" fill-opacity="0.2" stroke="#3366FF" stroke-width="2"/>
  <circle cx="35" cy="75" r="3" fill="#3366FF"/>
  <path d="M35 25L50 50M75 35L50 50M75 65L50 50M35 75L50 50" stroke="#3366FF" stroke-width="2"/>
  <circle cx="25" cy="50" r="6" fill="#3366FF" fill-opacity="0.2" stroke="#3366FF" stroke-width="2"/>
  <circle cx="25" cy="50" r="2" fill="#3366FF"/>
  <path d="M25 50L50 50" stroke="#3366FF" stroke-width="2"/>
</svg> 