<?xml version="1.0" encoding="UTF-8"?>
<svg width="100" height="100" viewBox="0 0 100 100" fill="none" xmlns="http://www.w3.org/2000/svg">
  <circle cx="50" cy="50" r="48" fill="#F5F5F5" stroke="#3366FF" stroke-width="2"/>
  <path d="M30 35H70C72.7614 35 75 37.2386 75 40V70C75 72.7614 72.7614 75 70 75H30C27.2386 75 25 72.7614 25 70V40C25 37.2386 27.2386 35 30 35Z" fill="white" stroke="#3366FF" stroke-width="2"/>
  <path d="M30 45H70" stroke="#3366FF" stroke-width="2"/>
  <path d="M30 55H70" stroke="#3366FF" stroke-width="2"/>
  <path d="M30 65H50" stroke="#3366FF" stroke-width="2"/>
  <circle cx="50" cy="25" r="10" fill="#FFD700" stroke="#3366FF" stroke-width="2"/>
  <path d="M50 20L52 25H48L50 20Z" fill="#3366FF"/>
  <path d="M50 30L48 25H52L50 30Z" fill="#3366FF"/>
  <path d="M45 25L50 23L55 25" stroke="#3366FF" stroke-width="2" stroke-linecap="round"/>
  <path d="M45 25L50 27L55 25" stroke="#3366FF" stroke-width="2" stroke-linecap="round"/>
</svg> 