<svg width="56" height="56" viewBox="0 0 56 56" fill="none" xmlns="http://www.w3.org/2000/svg">
  <defs>
    <linearGradient id="infinityGradient" x1="0" y1="0" x2="100%" y2="100%">
      <stop offset="0%" stop-color="#3366FF">
        <animate attributeName="stop-color" values="#3366FF;#5c83ff;#3366FF" dur="4s" repeatCount="indefinite" />
      </stop>
      <stop offset="100%" stop-color="#FF5722">
        <animate attributeName="stop-color" values="#FF5722;#ff7a52;#FF5722" dur="4s" repeatCount="indefinite" />
      </stop>
    </linearGradient>
    <filter id="glow" x="-20%" y="-20%" width="140%" height="140%">
      <feGaussianBlur stdDeviation="2" result="blur" />
      <feComposite in="SourceGraphic" in2="blur" operator="over" />
    </filter>
  </defs>
  <g filter="url(#glow)">
    <path d="M38 28C42.4183 28 46 24.4183 46 20C46 15.5817 42.4183 12 38 12C33.5817 12 30 15.5817 30 20C30 20 30 28 22 28C14 28 14 20 14 20C14 15.5817 10.4183 12 6 12C1.58172 12 -2 15.5817 -2 20C-2 24.4183 1.58172 28 6 28C10.4183 28 14 24.4183 14 20M14 20C14 20 14 36 22 36C30 36 30 28 30 28M30 28C30 32.4183 33.5817 36 38 36C42.4183 36 46 32.4183 46 28C46 23.5817 42.4183 20 38 20C33.5817 20 30 23.5817 30 28Z" stroke="url(#infinityGradient)" stroke-width="3" stroke-linecap="round" stroke-linejoin="round">
      <animate attributeName="stroke-width" values="2.5;3.5;2.5" dur="3s" repeatCount="indefinite"/>
      <animate attributeName="stroke-dashoffset" values="200;0" dur="5s" repeatCount="indefinite"/>
      <animate attributeName="stroke-dasharray" values="2 0;0 0" dur="5s" repeatCount="indefinite"/>
    </path>
    <circle cx="22" cy="28" r="3" fill="#3366FF">
      <animate attributeName="r" values="2;3;2" dur="2s" repeatCount="indefinite"/>
      <animate attributeName="opacity" values="0.7;1;0.7" dur="2s" repeatCount="indefinite"/>
    </circle>
    <circle cx="38" cy="20" r="3" fill="#FF5722">
      <animate attributeName="r" values="2;3;2" dur="2s" begin="0.3s" repeatCount="indefinite"/>
      <animate attributeName="opacity" values="0.7;1;0.7" dur="2s" begin="0.3s" repeatCount="indefinite"/>
    </circle>
    <circle cx="38" cy="36" r="3" fill="#FF5722">
      <animate attributeName="r" values="2;3;2" dur="2s" begin="0.6s" repeatCount="indefinite"/>
      <animate attributeName="opacity" values="0.7;1;0.7" dur="2s" begin="0.6s" repeatCount="indefinite"/>
    </circle>
    <circle cx="6" cy="28" r="3" fill="#3366FF">
      <animate attributeName="r" values="2;3;2" dur="2s" begin="0.9s" repeatCount="indefinite"/>
      <animate attributeName="opacity" values="0.7;1;0.7" dur="2s" begin="0.9s" repeatCount="indefinite"/>
    </circle>
  </g>
</svg>
