<?xml version="1.0" encoding="UTF-8"?>
<svg width="400" height="240" viewBox="0 0 400 240" fill="none" xmlns="http://www.w3.org/2000/svg">
  <!-- 背景 -->
  <rect width="400" height="240" rx="12" fill="url(#paint0_linear)"/>
  
  <!-- 标题 -->
  <text x="200" y="30" font-family="Arial, sans-serif" font-size="14" font-weight="bold" text-anchor="middle" fill="#333">2024年各平台内容主题分布情况</text>
  
  <!-- 抖音 -->
  <g filter="url(#shadow1)">
    <rect x="30" y="50" width="340" height="30" rx="6" fill="white"/>
  </g>
  <circle cx="45" cy="65" r="10" fill="#000000" opacity="0.8"/>
  <text x="45" y="69" font-family="Arial, sans-serif" font-size="8" text-anchor="middle" fill="white">抖</text>
  <rect x="60" y="58" width="70" height="14" rx="7" fill="#6C5CE7" opacity="0.8"/>
  <text x="95" y="68" font-family="Arial, sans-serif" font-size="8" text-anchor="middle" fill="white">实用知识 23.9%</text>
  <rect x="135" y="58" width="60" height="14" rx="7" fill="#74B9FF" opacity="0.8"/>
  <text x="165" y="68" font-family="Arial, sans-serif" font-size="8" text-anchor="middle" fill="white">展示测评 21%</text>
  <rect x="200" y="58" width="60" height="14" rx="7" fill="#A29BFE" opacity="0.8"/>
  <text x="230" y="68" font-family="Arial, sans-serif" font-size="8" text-anchor="middle" fill="white">教程技能 18.3%</text>
  <text x="300" y="68" font-family="Arial, sans-serif" font-size="8" text-anchor="middle" fill="#666">用"3秒实用内容+30秒教程"提升完播率</text>
  
  <!-- 公众号 -->
  <g filter="url(#shadow1)">
    <rect x="30" y="85" width="340" height="30" rx="6" fill="white"/>
  </g>
  <circle cx="45" cy="100" r="10" fill="#07C160" opacity="0.8"/>
  <text x="45" y="104" font-family="Arial, sans-serif" font-size="8" text-anchor="middle" fill="white">微</text>
  <rect x="60" y="93" width="95" height="14" rx="7" fill="#27AE60" opacity="0.8"/>
  <text x="108" y="103" font-family="Arial, sans-serif" font-size="8" text-anchor="middle" fill="white">行业资讯 44.6%</text>
  <rect x="160" y="93" width="70" height="14" rx="7" fill="#2ECC71" opacity="0.8"/>
  <text x="195" y="103" font-family="Arial, sans-serif" font-size="8" text-anchor="middle" fill="white">企业故事 26.2%</text>
  <rect x="235" y="93" width="40" height="14" rx="7" fill="#55EFC4" opacity="0.8"/>
  <text x="255" y="103" font-family="Arial, sans-serif" font-size="8" text-anchor="middle" fill="white">教程 9%</text>
  <text x="310" y="103" font-family="Arial, sans-serif" font-size="8" text-anchor="middle" fill="#666">富含内容+分享系统，展示专业度</text>
  
  <!-- 视频号 -->
  <g filter="url(#shadow1)">
    <rect x="30" y="120" width="340" height="30" rx="6" fill="white"/>
  </g>
  <circle cx="45" cy="135" r="10" fill="#FF9F00" opacity="0.8"/>
  <text x="45" y="139" font-family="Arial, sans-serif" font-size="8" text-anchor="middle" fill="white">视</text>
  <rect x="60" y="128" width="95" height="14" rx="7" fill="#F39C12" opacity="0.8"/>
  <text x="108" y="138" font-family="Arial, sans-serif" font-size="8" text-anchor="middle" fill="white">实用知识 44.6%</text>
  <rect x="160" y="128" width="70" height="14" rx="7" fill="#FDCB6E" opacity="0.8"/>
  <text x="195" y="138" font-family="Arial, sans-serif" font-size="8" text-anchor="middle" fill="white">展示测评 26.2%</text>
  <rect x="235" y="128" width="40" height="14" rx="7" fill="#FEF08A" opacity="0.8"/>
  <text x="255" y="138" font-family="Arial, sans-serif" font-size="8" text-anchor="middle" fill="white">教程 9%</text>
  <text x="310" y="138" font-family="Arial, sans-serif" font-size="8" text-anchor="middle" fill="#666">热点+咨询组合，兼顾私域联动</text>
  
  <!-- 小红书 -->
  <g filter="url(#shadow1)">
    <rect x="30" y="155" width="340" height="30" rx="6" fill="white"/>
  </g>
  <circle cx="45" cy="170" r="10" fill="#FF4040" opacity="0.8"/>
  <text x="45" y="174" font-family="Arial, sans-serif" font-size="8" text-anchor="middle" fill="white">红</text>
  <rect x="60" y="163" width="70" height="14" rx="7" fill="#E84393" opacity="0.8"/>
  <text x="95" y="173" font-family="Arial, sans-serif" font-size="8" text-anchor="middle" fill="white">展示测评 28.6%</text>
  <rect x="135" y="163" width="60" height="14" rx="7" fill="#FD79A8" opacity="0.8"/>
  <text x="165" y="173" font-family="Arial, sans-serif" font-size="8" text-anchor="middle" fill="white">实用知识 18.2%</text>
  <rect x="200" y="163" width="60" height="14" rx="7" fill="#FFAAA5" opacity="0.8"/>
  <text x="230" y="173" font-family="Arial, sans-serif" font-size="8" text-anchor="middle" fill="white">用户互动 11.3%</text>
  <text x="310" y="173" font-family="Arial, sans-serif" font-size="8" text-anchor="middle" fill="#666">测评对比+真人体验，强调真实性</text>
  
  <!-- 快手 -->
  <g filter="url(#shadow1)">
    <rect x="30" y="190" width="340" height="30" rx="6" fill="white"/>
  </g>
  <circle cx="45" cy="205" r="10" fill="#FF4343" opacity="0.8"/>
  <text x="45" y="209" font-family="Arial, sans-serif" font-size="8" text-anchor="middle" fill="white">快</text>
  <rect x="60" y="198" width="60" height="14" rx="7" fill="#FF7675" opacity="0.8"/>
  <text x="90" y="208" font-family="Arial, sans-serif" font-size="8" text-anchor="middle" fill="white">实用知识 19.1%</text>
  <rect x="125" y="198" width="60" height="14" rx="7" fill="#FAB1A0" opacity="0.8"/>
  <text x="155" y="208" font-family="Arial, sans-serif" font-size="8" text-anchor="middle" fill="white">热点追踪 17.9%</text>
  <rect x="190" y="198" width="60" height="14" rx="7" fill="#FFEAA7" opacity="0.8"/>
  <text x="220" y="208" font-family="Arial, sans-serif" font-size="8" text-anchor="middle" fill="white">展示测评 14.9%</text>
  <text x="310" y="208" font-family="Arial, sans-serif" font-size="8" text-anchor="middle" fill="#666">实用性和娱乐性并重，降低决策门槛</text>
  
  <!-- 装饰元素 -->
  <circle cx="15" cy="50" r="2" fill="#6C5CE7" opacity="0.3"/>
  <circle cx="10" cy="55" r="1" fill="#6C5CE7" opacity="0.2"/>
  <circle cx="20" cy="45" r="1" fill="#6C5CE7" opacity="0.2"/>
  
  <circle cx="15" cy="220" r="2" fill="#FF7675" opacity="0.3"/>
  <circle cx="10" cy="225" r="1" fill="#FF7675" opacity="0.2"/>
  <circle cx="20" cy="215" r="1" fill="#FF7675" opacity="0.2"/>
  
  <circle cx="385" cy="50" r="2" fill="#6C5CE7" opacity="0.3"/>
  <circle cx="380" cy="55" r="1" fill="#6C5CE7" opacity="0.2"/>
  <circle cx="390" cy="45" r="1" fill="#6C5CE7" opacity="0.2"/>
  
  <circle cx="385" cy="220" r="2" fill="#FF7675" opacity="0.3"/>
  <circle cx="380" cy="225" r="1" fill="#FF7675" opacity="0.2"/>
  <circle cx="390" cy="215" r="1" fill="#FF7675" opacity="0.2"/>
  
  <!-- 定义渐变和滤镜 -->
  <defs>
    <linearGradient id="paint0_linear" x1="0" y1="0" x2="400" y2="240" gradientUnits="userSpaceOnUse">
      <stop stop-color="#FFFFFF"/>
      <stop offset="1" stop-color="#F8F9FF"/>
    </linearGradient>
    
    <filter id="shadow1" x="25" y="47" width="350" height="38" filterUnits="userSpaceOnUse" color-interpolation-filters="sRGB">
      <feFlood flood-opacity="0" result="BackgroundImageFix"/>
      <feColorMatrix in="SourceAlpha" type="matrix" values="0 0 0 0 0 0 0 0 0 0 0 0 0 0 0 0 0 0 127 0"/>
      <feOffset dy="2"/>
      <feGaussianBlur stdDeviation="2.5"/>
      <feColorMatrix type="matrix" values="0 0 0 0 0 0 0 0 0 0 0 0 0 0 0 0 0 0 0.06 0"/>
      <feBlend mode="normal" in2="BackgroundImageFix" result="effect1_dropShadow"/>
      <feBlend mode="normal" in="SourceGraphic" in2="effect1_dropShadow" result="shape"/>
    </filter>
  </defs>
</svg> 