<?xml version="1.0" encoding="UTF-8"?>
<svg width="20px" height="20px" viewBox="0 0 20 20" version="1.1" xmlns="http://www.w3.org/2000/svg" xmlns:xlink="http://www.w3.org/1999/xlink">
    <title>收藏/喜欢</title>
    <g id="收藏图标" stroke="none" stroke-width="1" fill="none" fill-rule="evenodd">
        <path d="M10,17.2693835 L8.56,15.9693835 C6.78,14.3543835 5.3,13.0143835 4.12,11.8493835 C2.94,10.6843835 2.07,9.67438348 1.51,8.82438348 C0.95,7.97438348 0.59,7.20938348 0.43,6.52938348 C0.27,5.84938348 0.19,5.13438348 0.19,4.38438348 C0.19,2.88438348 0.66,1.66438348 1.6,0.72438348 C2.54,-0.21561652 3.76,-0.68561652 5.26,-0.68561652 C6.1,-0.68561652 6.89,-0.49561652 7.63,-0.11561652 C8.37,0.26438348 9.01,0.81438348 9.55,1.53438348 L10,2.08438348 L10.45,1.53438348 C10.99,0.81438348 11.63,0.26438348 12.37,-0.11561652 C13.11,-0.49561652 13.9,-0.68561652 14.74,-0.68561652 C16.24,-0.68561652 17.46,-0.21561652 18.4,0.72438348 C19.34,1.66438348 19.81,2.88438348 19.81,4.38438348 C19.81,5.13438348 19.73,5.84938348 19.57,6.52938348 C19.41,7.20938348 19.05,7.97438348 18.49,8.82438348 C17.93,9.67438348 17.06,10.6843835 15.88,11.8493835 C14.7,13.0143835 13.22,14.3543835 11.44,15.9693835 L10,17.2693835 Z" id="收藏" fill="#424242" fill-rule="nonzero" transform="translate(10.000000, 8.291883) scale(1, -1) translate(-10.000000, -8.291883) "></path>
    </g>
</svg> 