<?xml version="1.0" encoding="UTF-8"?>
<svg width="24px" height="24px" viewBox="0 0 24 24" version="1.1" xmlns="http://www.w3.org/2000/svg">
    <g stroke="none" stroke-width="1" fill="none" fill-rule="evenodd">
        <path d="M10.5857864,13.4142136 C11.366835,14.1952621 12.633165,14.1952621 13.4142136,13.4142136 C14.1952621,12.633165 14.1952621,11.366835 13.4142136,10.5857864 L10.5857864,7.75735931 C9.80473785,6.97631073 8.53807119,6.97631073 7.75735931,7.75735931 C6.97631073,8.53807119 6.97631073,9.80473785 7.75735931,10.5857864 L8.58578644,11.4142136 L7.17157288,12.8284271 L6.34314575,12 C4.78105369,10.4379079 4.78105369,7.90524292 6.34314575,6.34314575 C7.90523806,4.78105369 10.437903,4.78105369 12.0000002,6.34314575 L14.8284271,9.17157288 C16.3905179,10.733665 16.3905179,13.266332 14.8284271,14.8284271 C13.2663338,16.3905192 10.7336668,16.3905192 9.17157288,14.8284271 L8.34314575,14 L9.75735931,12.5857864 L10.5857864,13.4142136 Z M13.4142136,10.5857864 L14.8284271,9.17157288 L17.6568542,12 C19.2189463,13.5620921 19.2189463,16.0947571 17.6568542,17.6568542 C16.0947571,19.2189463 13.562097,19.2189463 11.9999998,17.6568542 L9.17157288,14.8284271 L10.5857864,13.4142136 L13.4142136,16.2426407 C14.1952621,17.0236893 15.4619288,17.0236893 16.2426407,16.2426407 C17.0236893,15.4619288 17.0236893,14.1952621 16.2426407,13.4142136 L13.4142136,10.5857864 Z" fill="#666666"></path>
    </g>
</svg> 