<?xml version="1.0" encoding="UTF-8"?>
<svg width="100" height="100" viewBox="0 0 100 100" fill="none" xmlns="http://www.w3.org/2000/svg">
  <circle cx="50" cy="50" r="48" fill="#F5F5F5" stroke="#3366FF" stroke-width="2"/>
  <circle cx="50" cy="30" r="8" fill="#3366FF"/>
  <circle cx="25" cy="60" r="8" fill="#3366FF"/>
  <circle cx="75" cy="60" r="8" fill="#3366FF"/>
  <circle cx="40" cy="75" r="6" fill="#3366FF"/>
  <circle cx="60" cy="75" r="6" fill="#3366FF"/>
  <path d="M50 38L25 52M50 38L75 52M25 68L40 75M75 68L60 75M50 38L40 75M50 38L60 75" stroke="#3366FF" stroke-width="2"/>
  <path d="M25 60L40 75M25 60L60 75M75 60L40 75M75 60L60 75" stroke="#3366FF" stroke-width="2" stroke-dasharray="4 4"/>
  <circle cx="50" cy="30" r="8" stroke="white" stroke-width="1"/>
  <circle cx="25" cy="60" r="8" stroke="white" stroke-width="1"/>
  <circle cx="75" cy="60" r="8" stroke="white" stroke-width="1"/>
  <circle cx="40" cy="75" r="6" stroke="white" stroke-width="1"/>
  <circle cx="60" cy="75" r="6" stroke="white" stroke-width="1"/>
</svg> 