<svg width="24" height="24" viewBox="0 0 24 24" xmlns="http://www.w3.org/2000/svg">
  <defs>
    <linearGradient id="phone-grad" x1="0%" y1="0%" x2="100%" y2="100%">
      <stop offset="0%" style="stop-color:#4a6bff;stop-opacity:1" />
      <stop offset="100%" style="stop-color:#00c4cc;stop-opacity:1" />
    </linearGradient>
  </defs>
  <path d="M20,15.5 C18.8,15.5 17.5,15.3 16.4,14.9 C16.1,14.8 15.7,14.9 15.5,15.1 L13.2,17.4 C10.4,15.9 8,13.6 6.6,10.8 L8.9,8.5 C9.1,8.3 9.2,7.9 9.1,7.6 C8.7,6.5 8.5,5.2 8.5,4 C8.5,3.4 8,3 7.5,3 L4,3 C3.4,3 3,3.4 3,4 C3,13.4 10.6,21 20,21 C20.6,21 21,20.6 21,20 L21,16.5 C21,16 20.6,15.5 20,15.5 Z" fill="url(#phone-grad)" />
</svg> 