<svg xmlns="http://www.w3.org/2000/svg" viewBox="0 0 64 64" width="64" height="64">
  <defs>
    <!-- 线条渐变 -->
    <linearGradient id="lineGradient" x1="0%" y1="0%" x2="100%" y2="100%">
      <stop offset="0%" stop-color="#3366FF" />
      <stop offset="100%" stop-color="#5C83FF" />
    </linearGradient>
  </defs>
  
  <!-- 线球背景 -->
  <circle cx="32" cy="32" r="24" fill="#E3F2FD" stroke="#BBDEFB" stroke-width="1" />
  
  <!-- 缠绕线条 -->
  <path d="M16,35 C22,28 26,38 32,32 C38,26 28,22 35,16 C42,10 48,20 42,26 C36,32 46,36 40,42 C34,48 24,42 30,36 C36,30 32,20 25,26 C18,32 10,26 16,20 C22,14 32,18 26,24 C20,30 10,24 16,35 Z" 
        fill="none" stroke="url(#lineGradient)" stroke-width="2.5" stroke-linecap="round" stroke-linejoin="round" />
  
  <!-- 线头1 -->
  <circle cx="16" cy="35" r="2" fill="#3366FF" />
  
  <!-- 线头2 -->
  <circle cx="16" cy="20" r="2" fill="#5C83FF" />
  
  <!-- 混乱的线头 -->
  <path d="M38,38 C42,42 46,38 44,34" fill="none" stroke="#3366FF" stroke-width="2" stroke-linecap="round" />
  <path d="M22,44 C18,48 22,52 26,50" fill="none" stroke="#5C83FF" stroke-width="2" stroke-linecap="round" />
  <path d="M40,22 C44,18 42,14 38,16" fill="none" stroke="#3366FF" stroke-width="2" stroke-linecap="round" />
  
  <!-- 混乱效果的小圆点 -->
  <circle cx="44" cy="34" r="1.5" fill="#3366FF" />
  <circle cx="26" cy="50" r="1.5" fill="#5C83FF" />
  <circle cx="38" cy="16" r="1.5" fill="#3366FF" />
  
  <!-- 额外的装饰线条 -->
  <path d="M24,18 S28,14 32,18" fill="none" stroke="#BBDEFB" stroke-width="1.5" stroke-linecap="round" />
  <path d="M40,28 S44,24 48,28" fill="none" stroke="#BBDEFB" stroke-width="1.5" stroke-linecap="round" />
  <path d="M18,44 S22,40 26,44" fill="none" stroke="#BBDEFB" stroke-width="1.5" stroke-linecap="round" />
</svg> 