<?xml version="1.0" encoding="UTF-8"?>
<svg width="24px" height="24px" viewBox="0 0 24 24" version="1.1" xmlns="http://www.w3.org/2000/svg">
    <g stroke="none" stroke-width="1" fill="none" fill-rule="evenodd">
        <path d="M9.5,6 C13.0898509,6 16,8.23857625 16,11 C16,12.355178 15.1985206,13.5654577 13.9372443,14.3911218 L14.5,17 L12.0933511,15.634115 C11.259996,15.875292 10.3476282,16 9.5,16 C5.91014913,16 3,13.7614237 3,11 C3,8.23857625 5.91014913,6 9.5,6 Z M18.5,8 C18.8797086,8 19.2483282,8.03180735 19.6014283,8.09253378 L20,8.14474514 L20,8 L19.5,8 C19.2238576,8 19,7.77614237 19,7.5 C19,7.22385763 19.2238576,7 19.5,7 L21.5,7 C21.7761424,7 22,7.22385763 22,7.5 L22,9.5 C22,9.77614237 21.7761424,10 21.5,10 C21.2238576,10 21,9.77614237 21,9.5 L21,8.66983695 L20.3986722,8.57220548 C20.1019734,8.52359062 19.7902316,8.5 19.5,8.5 C19.1686547,8.5 19.012032,8.55331257 18.9605642,8.58795807 C18.9116565,8.62047303 18.8201189,8.70174766 18.7801724,8.88471574 C18.7429313,9.05475756 18.8003939,9.31304381 19.0278237,9.63418511 C19.3816392,10.1344738 19.4694753,10.7856532 19.1667394,11.3662677 L19.0603465,11.5436356 L20.5,12.5 L19.0500695,13.5 L19.5,13.5 C19.7761424,13.5 20,13.7238576 20,14 C20,14.2761424 19.7761424,14.5 19.5,14.5 L17.5,14.5 C17.2238576,14.5 17,14.2761424 17,14 C17,13.7238576 17.2238576,13.5 17.5,13.5 L17.8666667,13.5 L17.4240975,13.1690281 C17.1728303,12.978298 17.0299321,12.6693112 17.0651262,12.3513759 C17.0796248,12.2265626 17.0578986,12.1943685 17.0450597,12.1746697 C17.0350508,12.159692 17.0157734,12.1354189 16.9722106,12.1066284 C16.8492685,12.0268316 16.6433841,12 16.5,12 C16.2238576,12 16,12.2238576 16,12.5 L16,12.75 L15.7899954,12.6537462 C14.7312949,12.2789653 14,11.4812624 14,10.5 C14,9.11928813 16.0147186,8 18.5,8 Z M9.5,8 C7.01471863,8 5,9.34314575 5,11 C5,12.6568542 7.01471863,14 9.5,14 C10.1064548,14 10.7096777,13.9218807 11.2680101,13.7748121 C11.4566724,13.7197132 11.6615517,13.7558021 11.8232233,13.8696699 L13,14.7370251 L12.7183089,13.6030226 C12.6652758,13.3791215 12.7223074,13.1445766 12.8753899,12.9694006 C13.5571174,12.2059064 14,11.6347923 14,11 C14,9.34314575 11.9852814,8 9.5,8 Z M8,10 C8.55228475,10 9,10.4477153 9,11 C9,11.5522847 8.55228475,12 8,12 C7.44771525,12 7,11.5522847 7,11 C7,10.4477153 7.44771525,10 8,10 Z M11,10 C11.5522847,10 12,10.4477153 12,11 C12,11.5522847 11.5522847,12 11,12 C10.4477153,12 10,11.5522847 10,11 C10,10.4477153 10.4477153,10 11,10 Z M17,9 C17.5522847,9 18,9.44771525 18,10 C18,10.5522847 17.5522847,11 17,11 C16.4477153,11 16,10.5522847 16,10 C16,9.44771525 16.4477153,9 17,9 Z M20,9 C20.5522847,9 21,9.44771525 21,10 C21,10.5522847 20.5522847,11 20,11 C19.4477153,11 19,10.5522847 19,10 C19,9.44771525 19.4477153,9 20,9 Z" fill="#666666"></path>
    </g>
</svg>
