<?xml version="1.0" encoding="UTF-8"?>
<svg width="24px" height="24px" viewBox="0 0 24 24" version="1.1" xmlns="http://www.w3.org/2000/svg">
    <g stroke="none" stroke-width="1" fill="none" fill-rule="evenodd">
        <path d="M14.8,4.61388031 C14.5238576,4.61388031 14.3,4.83773794 14.3,5.11388031 C14.3,5.39002268 14.5238576,5.61388031 14.8,5.61388031 L14.8106717,5.61388031 L14.8106717,5.61460124 C17.2437616,5.63895184 19.2,7.6118093 19.2,10.0513803 C19.2,10.3275227 19.4238576,10.5513803 19.7,10.5513803 C19.9761424,10.5513803 20.2,10.3275227 20.2,10.0513803 C20.2,7.05744289 17.7813112,4.61388031 14.8106717,4.61460124 L14.8,4.61388031 Z M14.8,7.29619288 C14.5238576,7.29619288 14.3,7.52005052 14.3,7.79619288 C14.3,8.07233525 14.5238576,8.29619288 14.8,8.29619288 L14.8106717,8.29619288 L14.8106717,8.29691381 C15.7719187,8.30920638 16.5338983,9.08498979 16.5338983,10.0513803 C16.5338983,10.3275227 16.757756,10.5513803 17.0338983,10.5513803 C17.3100407,10.5513803 17.5338983,10.3275227 17.5338983,10.0513803 C17.5338983,8.53540251 16.3144267,7.29691381 14.8106717,7.29691381 L14.8,7.29619288 Z M18.3,12.6 C19.2389,12.6 20,13.3609 20,14.3 C20,15.2389 19.2389,16 18.3,16 C17.3611,16 16.6,15.2389 16.6,14.3 C16.6,13.3609 17.3611,12.6 18.3,12.6 Z M11.4860449,8 C13.7333072,8 15.7742845,8.54394519 17.2178051,9.49848731 C16.9243075,9.49848731 16.7769637,9.52740292 16.553547,9.62309392 C16.1283973,9.8146432 15.8223826,10.1934264 15.7162082,10.65286 C15.6100327,11.1123818 15.7437074,11.5821443 16.0753043,11.9138294 C16.5629068,12.4016737 17.3578536,12.5010417 17.9391187,12.1608236 C18.6338316,11.7443413 18.807524,10.7682341 18.3918181,10.0865484 C18.3091713,9.95217649 18.198537,9.83884004 18.0543014,9.71419811 C16.3071543,8.58548198 13.9984916,8 11.4860449,8 C8.97359819,8 6.66480711,8.58548198 4.91767844,9.71419811 C4.7733538,9.83884004 4.66278796,9.95217649 4.58013223,10.0865484 C4.16444388,10.7682341 4.33806729,11.7443413 5.03277118,12.1608236 C5.61410529,12.5010417 6.40919652,12.4016737 6.89664298,11.9138294 C7.22824877,11.5821443 7.36181196,11.1123818 7.25557648,10.65286 C7.14945994,10.1934264 6.84361781,9.8146432 6.41835315,9.62309392 C6.19492743,9.52740292 6.04761465,9.49848731 5.75411791,9.49848731 C7.19763849,8.54394519 9.2387935,8 11.4860449,8 Z M14.7,12.6 C16.1991,12.6 17.4223,13.0743 18.2284,13.8769 C18.9786,14.6238 19.4,15.5969 19.4,16.7 C19.4,18.5718 18.1799,19.95 16.1618,20.6658 C14.5947,21.2365 12.5894,21.4 10.6,21.4 C8.6106,21.4 6.6053,21.2365 5.0382,20.6658 C3.0201,19.95 1.8,18.5718 1.8,16.7 C1.8,15.5969 2.2214,14.6238 2.9716,13.8769 C3.7777,13.0743 5.0009,12.6 6.5,12.6 C6.9764,12.6 7.46,12.6709 7.9428,12.7826 C8.4257,12.8944 8.9307,13.0626 9.4278,13.2437 L9.4341,13.246 C9.8609,13.4042 10.3319,13.2279 10.5177,12.8095 C10.5179,12.8092 10.5181,12.8089 10.5183,12.8086 C10.7078,12.3834 10.5191,11.8882 10.0939,11.6987 C9.0886,11.2689 8.0394,11.0365 6.5,11.0365 C4.5827,11.0365 2.9657,11.6897 1.8581,12.7936 C0.7506,13.8974 0.2,15.3979 0.2,16.7 C0.2,19.11 1.7876,20.8808 4.1118,21.6876 C5.8454,22.2954 8.0603,22.4635 10.6,22.4635 C13.1397,22.4635 15.3546,22.2954 17.0882,21.6876 C19.4124,20.8808 21,19.11 21,16.7 C21,15.3979 20.4494,13.8974 19.3419,12.7936 C18.2343,11.6897 16.6173,11.0365 14.7,11.0365 C13.1606,11.0365 12.1114,11.2689 11.1061,11.6987 C10.6809,11.8882 10.4922,12.3834 10.6817,12.8086 C10.6819,12.8089 10.6821,12.8092 10.6823,12.8095 C10.8681,13.2279 11.3391,13.4042 11.7659,13.246 L11.7722,13.2437 C12.2693,13.0626 12.7743,12.8944 13.2572,12.7826 C13.74,12.6709 14.2236,12.6 14.7,12.6 Z M6.5,16.2 C7.44,16.2 8.2,17.0 8.2,18.0 C8.2,19.0 7.44,19.8 6.5,19.8 C5.56,19.8 4.8,19.0 4.8,18.0 C4.8,17.0 5.56,16.2 6.5,16.2 Z M14.7,16.2 C15.64,16.2 16.4,17.0 16.4,18.0 C16.4,19.0 15.64,19.8 14.7,19.8 C13.76,19.8 13,19.0 13,18.0 C13,17.0 13.76,16.2 14.7,16.2 Z" fill="#666666" fill-rule="nonzero"></path>
    </g>
</svg> 